# xmcd
# 
# Track frame offsets:
#     150
#     15527
#     24321
#     37610
#     48798
#     64826
#     73307
#     90197
#     108522
#     121255
#     142091
#     153776
#     168302
#     177810
#     196144
#     210360
# 
# Disc length: 2944
# 
# Revision: 1
# Processed by: cddbd v1.5.2PL0 Copyright (c) Steve Scherf et al.
# Submitted via: BonkEnc v1.0.6
# 
DISCID=c10b7e10
DTITLE=Snidane v trave - Country No.1  (1)
DYEAR=2007
DGENRE=Country
TTITLE0=Kalifornie
TTITLE1=U tri louzi
TTITLE2=Snidane v trave
TTITLE3=Rovnou tady rovnou
TTITLE4=Koukam jak cela zeme vstava
TTITLE5=Aljaska(Az jaro na aljasku...)
TTITLE6=Poveste ho vejs
TTITLE7=Uz vim
TTITLE8=V pondelí prohlizim koleje
TTITLE9=Staryho psa novym kouskum nenaucis
TTITLE10=John Henry
TTITLE11=Jizanskej rok
TTITLE12=Do rana toulam
TTITLE13=Jdou spat my stada
TTITLE14=Zatoka
TTITLE15=Nelly Bly
EXTD=
EXTT0=
EXTT1=
EXTT2=
EXTT3=
EXTT4=
EXTT5=
EXTT6=
EXTT7=
EXTT8=
EXTT9=
EXTT10=
EXTT11=
EXTT12=
EXTT13=
EXTT14=
EXTT15=
PLAYORDER=
